<?xml version="1.0" standalone="no"?><svg xmlns="http://www.w3.org/2000/svg" viewBox="0 0 1440 320"><path fill="#273036" fill-opacity="1" d="M0,192L6.2,197.3C12.3,203,25,213,37,197.3C49.2,181,62,139,74,112C86.2,85,98,75,111,80C123.1,85,135,107,148,149.3C160,192,172,256,185,288C196.9,320,209,320,222,298.7C233.8,277,246,235,258,213.3C270.8,192,283,192,295,208C307.7,224,320,256,332,250.7C344.6,245,357,203,369,181.3C381.5,160,394,160,406,138.7C418.5,117,431,75,443,101.3C455.4,128,468,224,480,250.7C492.3,277,505,235,517,181.3C529.2,128,542,64,554,58.7C566.2,53,578,107,591,128C603.1,149,615,139,628,144C640,149,652,171,665,149.3C676.9,128,689,64,702,80C713.8,96,726,192,738,197.3C750.8,203,763,117,775,112C787.7,107,800,181,812,176C824.6,171,837,85,849,80C861.5,75,874,149,886,186.7C898.5,224,911,224,923,186.7C935.4,149,948,75,960,64C972.3,53,985,107,997,128C1009.2,149,1022,139,1034,160C1046.2,181,1058,235,1071,218.7C1083.1,203,1095,117,1108,96C1120,75,1132,117,1145,112C1156.9,107,1169,53,1182,74.7C1193.8,96,1206,192,1218,197.3C1230.8,203,1243,117,1255,74.7C1267.7,32,1280,32,1292,69.3C1304.6,107,1317,181,1329,208C1341.5,235,1354,213,1366,213.3C1378.5,213,1391,235,1403,213.3C1415.4,192,1428,128,1434,96L1440,64L1440,320L1433.8,320C1427.7,320,1415,320,1403,320C1390.8,320,1378,320,1366,320C1353.8,320,1342,320,1329,320C1316.9,320,1305,320,1292,320C1280,320,1268,320,1255,320C1243.1,320,1231,320,1218,320C1206.2,320,1194,320,1182,320C1169.2,320,1157,320,1145,320C1132.3,320,1120,320,1108,320C1095.4,320,1083,320,1071,320C1058.5,320,1046,320,1034,320C1021.5,320,1009,320,997,320C984.6,320,972,320,960,320C947.7,320,935,320,923,320C910.8,320,898,320,886,320C873.8,320,862,320,849,320C836.9,320,825,320,812,320C800,320,788,320,775,320C763.1,320,751,320,738,320C726.2,320,714,320,702,320C689.2,320,677,320,665,320C652.3,320,640,320,628,320C615.4,320,603,320,591,320C578.5,320,566,320,554,320C541.5,320,529,320,517,320C504.6,320,492,320,480,320C467.7,320,455,320,443,320C430.8,320,418,320,406,320C393.8,320,382,320,369,320C356.9,320,345,320,332,320C320,320,308,320,295,320C283.1,320,271,320,258,320C246.2,320,234,320,222,320C209.2,320,197,320,185,320C172.3,320,160,320,148,320C135.4,320,123,320,111,320C98.5,320,86,320,74,320C61.5,320,49,320,37,320C24.6,320,12,320,6,320L0,320Z"></path></svg>